<svg xmlns="http://www.w3.org/2000/svg" viewBox="0 0 100 100">
<!-- SVG created with Arrow, by QuiverAI (https://quiver.ai) -->
  <style type="text/css">.cls-0 {fill:#161616;}
.cls-1 {fill:#B9AD8F;}
.cls-2 {fill:#FFFFFF;}
.cls-3 {fill:#6D6560;}
.cls-4 {fill:#EEF8FF;}
.cls-5 {fill:#515C63;}</style>
  <rect class="cls-0" y="-.2" width="100" height="100"/>
  <path class="cls-1" d="m97.4 49.6c0 26.3-21.1 47.4-47.4 47.4-26.6 0-46.9-20.5-46.9-47.4 0-23.4 20.6-46.8 46.9-46.8 25.1 0 47.4 20.5 47.4 46.8z"/>
  <path class="cls-2" d="m95.2 49.6c0 24.9-19.2 44.9-45.2 44.9-25.3 0-44.7-19.2-44.7-44.9 0-23.2 19.3-44.6 44.7-44.6 24.2 0 45.2 19.5 45.2 44.6z"/>
  <path class="cls-3" d="m71.8 42.5c-1.3-10.4-5.6-21-20.8-21-14.5 0-20.4 7.8-22.1 20.8l-4.4 1.4c0.1 4.4 1.8 6.2 3.4 8 1.1 1.3 1.4 2.6 1.8 4.3 2.2 8.8 7.7 14.8 16.3 18.1 1.4 3 2 4.5 4.3 4.5 2.2 0 2.6-0.5 4.2-4.3 2-1.2 10.9-2.5 15.2-13.6 1.2-2.6 1.1-5.6 2.6-7.9 1.2-1.6 3.8-4.4 3.8-7.4 0.2-2.8-2.2-2.9-4.3-2.9zm-45.7 2.1 2.7-0.9 0.1 7c-1.3-1.3-2.6-4.3-2.8-6.1zm24.9 32.5c-1.5 0-2.3-0.5-3.2-2.3h4.8c-0.5 1.3-1.1 2.3-1.6 2.3zm-1-3.9c-7.3 0-16.2-6.1-18.6-17.6 1-4.9 3.1-9.2 7.4-9.1 4.8-0.1 6 5.1 11.1 5.1 5.7 0.1 6.7-5.1 11.4-5.2 5-0.2 7.2 3.8 8 9.2-1.3 8-9 17.1-19.3 17.6zm21.8-22.5v-6.7c1.5 0 2.7-0.2 2.7 1 0 1.6-1.6 4.4-2.7 5.7z"/>
  <path class="cls-4" d="m47.9 74.8h4.7c-0.2 0.8-1 2.3-2.1 2.3-1.3 0-2.1-1-2.6-2.3z"/>
  <path class="cls-5" d="m38.8 64.6c1.3 3.7 4.8 4.7 7.3 5.7-0.7-1.8-4.3-4.5-7.3-5.7z"/>
  <path class="cls-5" d="m54.3 70.4c2-1 6.3-1.5 7.6-5.8-2.8 1.2-6.4 2.8-7.6 5.8z"/>
</svg>