<svg xmlns="http://www.w3.org/2000/svg" viewBox="0 0 100 100">
<!-- SVG created with Arrow, by QuiverAI (https://quiver.ai) -->
  <style type="text/css">.cls-0 {fill:#161616;}
.cls-1 {fill:#B9AC8E;}
.cls-2 {fill:#FFFFFF;}
.cls-3 {fill:#69615C;}
.cls-4 {fill:#E8F5FE;}
.cls-5 {fill:#475059;}
.cls-6 {fill:#675E58;}</style>
  <rect class="cls-0" x=".2" width="99.6" height="100"/>
  <path class="cls-1" d="m97 50c0 24.9-19.8 47.3-47 47.3s-46.7-20.3-46.7-47.3c0-23.3 19.8-46.8 46.7-46.8 26.2 0 47 21.9 47 46.8z"/>
  <path class="cls-2" d="m94.9 50c0 23.6-18.6 44.7-44.9 44.7s-44.5-19.4-44.5-44.7c0-22.2 18.6-44.6 44.5-44.6 24.5 0 44.9 20.2 44.9 44.6z"/>
  <path class="cls-3" d="m71.7 42c-1.1-9.4-5.1-20.6-19.7-21h-4c-11.1 0.4-17.6 7.9-18.9 21-1.5-0.1-4.1 0.1-4.3 2-0.2 3.4 2.8 6.6 4.5 8.6 1.3 5.6 4.1 15.4 16.5 20.6l1.8 3.4c0.5 1 1.4 1.3 2.8 1.3s2.2-0.2 2.8-1.3l1.3-3.1c9.9-3 14.4-9.7 16.1-15.6l1-4.9c1.5-2.2 4.5-4.9 4.4-8.9 0-1.7-2.8-2.5-4.3-2.1z"/>
  <path class="cls-2" d="m60 40.4c-3.9 0-5 4.6-7.5 5.5-1.1 0.3-3.8 0.5-5-0.3-2.3-1.4-3.4-5.2-6.9-5.2-4.6 0-5.4 3.6-6 5.7l-2.6 8.9c-0.6 3.9 5.8 17.2 18 17.4 9.1 0 17.9-8.3 18.9-15.9l-2.8-10.4c-0.7-2-1.7-5.7-6.1-5.7z"/>
  <path class="cls-2" d="m50.2 24.2c-3.7 0-6.4 1.8-6.4 4.2 0 2.7 2.2 6.2 6.4 6.2 3.7 0 6.6-3 6.6-6 0.1-2.1-2.3-4.5-6.6-4.4z"/>
  <path class="cls-4" d="m29.3 43.4c-0.9-0.2-3.2 0.2-3.2 0.8 0 1.4 1.9 4.9 3.2 6v-6.8z"/>
  <path class="cls-4" d="m71.6 43.4-0.1 6.8c1.1-1 3.1-3.8 3.1-6.3 0-0.5-2-0.7-3-0.5z"/>
  <path class="cls-4" d="m47.8 73.9 1.2 2.1c0.4 0.5 2.1 0.6 2.6 0l1.2-2.1c-1.7 0.2-3.4 0.2-5 0z"/>
  <path class="cls-5" d="m38.9 63.8c0.7 3.1 6 5.8 7.1 5.2v-0.6c-2.2-1.8-4.4-3.3-7.1-4.6z"/>
  <path class="cls-5" d="m54.2 69.4c1.2 0.2 6.7-1.5 7.7-5.5-2.7 1-5.7 2.6-7.7 5.5z"/>
  <path class="cls-6" d="m45.6 68.4"/>
  <path class="cls-6" d="m54.4 69.4"/>
</svg>