<svg xmlns="http://www.w3.org/2000/svg" viewBox="0 0 96 96">
<!-- SVG created with Arrow, by QuiverAI (https://quiver.ai) -->
  <style type="text/css">.cls-0 {fill:#161616;}
.cls-1 {fill:#B8AD91;}
.cls-2 {fill:#FFFFFF;}
.cls-3 {fill:#726965;}
.cls-4 {fill:#EDF8FF;}
.cls-5 {fill:#CBD3DA;}
.cls-6 {fill:#4E5A62;}</style>
  <rect class="cls-0" width="96" height="96"/>
  <circle class="cls-1" cx="47.5" cy="47.7" r="45.1"/>
  <circle class="cls-2" cx="47.9" cy="47.7" r="43.1"/>
  <path class="cls-3" d="m69.1 42c-0.8-7.4-4.2-19.9-19.1-19.9-13.2-0.1-20 6.4-22.1 19.8-1.5 0.4-4.1 0.5-4.1 2.7 0 3.9 3.7 6.6 4.5 8.4 1.5 5.8 4.4 14.4 16.1 19.6 1.2 2.9 1.5 4.2 3.8 4.2 2.5 0.1 2.9-1.1 4-3.9 9.1-3.3 13.7-8.3 16.2-17.2l0.5-2.3c1-2.2 4.4-5.1 4.4-8.7 0-2.2-2.5-2.6-4.2-2.7z"/>
  <path class="cls-2" d="m57.5 28.5c-0.3-2.8-4.1-4.9-9-4.8-4.7 0-8.5 1.9-8.5 5.1s2.9 8.2 8.7 8.2c5.1 0.1 9.2-4.2 8.8-8.5z"/>
  <path class="cls-2" d="m63.1 44.8c-0.7-2.4-2.7-5.3-5.4-5.3-4.5 0-5 3.9-6.9 5.3-0.9 0.5-3.5 0.8-4.9-0.3-2-1.4-3-5.3-6.5-5.3-2.8 0-4.9 3.3-5.7 6l-3.2 10.2c-0.2 2.5 4 13.3 16.2 16.3 2.9 0.5 5.3-0.1 7.2-1 6.5-2.7 10.5-6.9 12.6-14.7l-3.4-11.2z"/>
  <path class="cls-4" d="m27.7 43.5c-1 0.2-2.5 0.6-2.4 1.1 0.1 1.1 1.3 4.1 2.4 5.1 0.4-1.1 0.5-4.6 0-6.2z"/>
  <path class="cls-4" d="m69.1 49.9c1.2-0.6 2.8-3.5 2.6-5.6-0.4-0.6-1.2-0.7-2.4-0.7-0.3 1.5-0.4 5.3-0.2 6.3z"/>
  <path class="cls-5" d="m45.8 73c0.6 1.1 1.1 2.6 2.6 2.6 1.2 0 2-1.4 2.4-2.5-1.5 0.2-3.7 0.1-5-0.1z"/>
  <path class="cls-6" d="m37.4 63.5c0.9 3.1 4.8 4.7 6.9 5.5-0.5-2.1-4.7-4.4-6.9-5.5z"/>
  <path class="cls-6" d="m52.2 69c2-0.5 6.3-1.9 7.3-5.5-2.2 1.1-5.7 2.3-7.3 5.5z"/>
</svg>