<svg xmlns="http://www.w3.org/2000/svg" viewBox="0 0 120 120">
<!-- SVG created with Arrow, by QuiverAI (https://quiver.ai) -->
  <style type="text/css">.cls-0 {fill:#161616;}
.cls-1 {fill:#B9AD8E;}
.cls-2 {fill:#FFFFFF;}
.cls-3 {fill:#C3CBD5;}
.cls-4 {fill:none;stroke:#6B635E;stroke-width:1.9246;stroke-linecap:round;stroke-linejoin:round;stroke-miterlimit:10;}
.cls-5 {fill:#6B635E;}
.cls-6 {fill:none;stroke:#6B635E;stroke-width:1.9246;stroke-miterlimit:10;}
.cls-7 {fill:#4B555E;}</style>
  <rect class="cls-0" x=".2" width="119.6" height="120"/>
  <path class="cls-1" d="m59.7 3.7c-30.9 0-56 25.1-56 55.9s23.3 57.1 56 57.1c31.2 0 56.9-23.5 56.9-57.1 0-29.7-24.8-55.9-56.9-55.9z"/>
  <path class="cls-2" d="m60 6.1c-29.6 0-53.7 23.7-53.7 53.2s21.9 54.3 53.7 54.3c29.5 0 53.8-22.2 53.8-54.3 0-28.1-23.3-53.2-53.8-53.2z"/>
  <path class="cls-3" d="m55.5 89c1.7 1.7 1.9 5.3 4.5 5.4 3.2 0.2 3.5-3.1 4.8-5.1l-1.7 0.3-3.7 0.1-3.9-0.7z"/>
  <path class="cls-4" d="m35.6 52.4c-1.5 0-5.2 0.8-5.3 2.2-0.2 3.6 2.8 6.7 5.3 10.2"/>
  <path class="cls-4" d="m85.3 52.6c1.5 0 5.2-0.2 5 2.4-0.2 3.6-2.8 6.1-5.2 9.6"/>
  <path class="cls-5" d="m34.6 52.9c0.8-8.4 4.9-26.1 22.8-26.1h5.3c14 0 22.2 7.9 23.2 24.9l-0.8 13c-2.7-5.7-5-8.1-5.1-10.9 0-4.7 1.5-16-3.3-20.3-2.8-2.4-6.9-4.9-16.7-5-5.3-0.1-11.6 1.3-15.2 4.7-4.2 4-4.8 14.5-3.8 20.6 0.3 2.3-2.3 7-4.7 10.9l-1.7-0.1v-11.7z"/>
  <path class="cls-6" d="m35.6 64c2 8.3 5 19.4 19.5 24.7 1.6 0.6 6.7 1.6 10.2 0.3 11.5-3.5 17.1-11.3 19-19.6l1.1-4.8"/>
  <path class="cls-4" d="m55.5 89c1.7 1.7 1.9 5.3 4.5 5.4 3.2 0.2 3.5-2.6 4.8-5.1"/>
  <path class="cls-7" d="m46.1 78.4c1.5 4.6 6.7 6.3 9.1 6.9-1.1-2.9-6.3-5.8-9.1-6.9z"/>
  <path class="cls-7" d="m74.4 78.2c-1.3 4.4-6.5 6.2-9.3 7.2 1.1-3 6.5-6 9.3-7.2z"/>
  <path class="cls-7" d="m65.1 85.4"/>
</svg>